<svg xmlns="http://www.w3.org/2000/svg" viewBox="118 115 578 155" role="img" aria-label="ANSULAIS">
  <path fill="currentColor" d="M281.43,190.54v44.21h-16.64v-40.05c0-5.72-4.45-10.58-10.16-10.8-7.94-.31-13.73,4.96-13.73,14.13v36.72h-16.64v-63.22h15.92v9.27h.24c4.04-7.72,11.05-10.93,19.01-10.93,13.43,0,21.99,8.79,21.99,20.68Z"/><path fill="currentColor" d="M356.17,190.78h-16.28c-.95-6.3-4.64-8.32-11.29-8.32-6.3,0-10.1,1.54-10.1,6.18,0,4.28,8.08,5.7,16.04,7.25,18.03,3.4,23.37,9.56,23.53,18.27.2,11.16-8.57,20.41-19.66,21.74-23.57,2.82-38.45-6.01-38.45-21.34h17.11c0,5.11,3.09,9.27,13.67,9.27,6.66,0,10.7-2.73,10.7-6.54,0-4.16-5.59-5.58-17.11-7.72-14.74-2.61-22.1-8.2-22.1-18.54,0-12.48,9.27-21.15,25.55-21.15,19.01,0,27.69,8.08,28.4,20.92Z"/><path fill="currentColor" d="M394.19,171.52v39.57c0,6.22,5.04,11.46,11.25,11.28,7.26-.21,12.4-5.63,12.4-14.02v-36.84h16.64v63.22h-15.92v-8.91h-.24c-3.92,6.77-10.34,10.58-19.25,10.58-13.67,0-21.51-8.56-21.51-22.82v-42.07h16.64Z"/><path fill="currentColor" d="M474.4,149.42v85.33h-16.64v-85.33h16.64Z"/><path fill="currentColor" d="M548.79,222.98c0,6.18,1.31,8.32,3.68,9.27v2.49h-17.94c-.83-2.49-1.43-4.75-1.54-7.49-6.06,6.54-12.36,9.15-20.44,9.15-11.53,0-19.25-7.13-19.25-18.42,0-8.2,2.97-17.94,19.85-20.44l11.88-1.78c6.18-.95,7.49-2.14,7.49-5.35,0-4.4-2.73-7.25-10.93-7.25-6.18,0-9.63,2.73-10.22,8.8h-16.04c1.31-13.31,7.61-22.1,27.81-22.1,16.28,0,25.67,6.89,25.67,17.83v35.3ZM532.51,211.81v-7.84c-2.85,1.78-5.47,2.61-11.88,3.57-6.65.95-10.69,3.33-10.7,9.38,0,4.11,3.2,7.5,7.31,7.61,7.5.19,15.27-4.84,15.27-12.71Z"/><path fill="currentColor" d="M588,148.59v15.45h-16.64v-15.45h16.64ZM588,171.52v63.22h-16.64v-63.22h16.64Z"/><path fill="currentColor" d="M663.22,190.78h-16.28c-.95-6.3-4.64-8.32-11.29-8.32-6.3,0-10.1,1.54-10.1,6.18,0,4.28,8.08,5.7,16.04,7.25,18.03,3.4,23.37,9.56,23.53,18.27.2,11.16-8.57,20.41-19.66,21.74-23.57,2.82-38.45-6.01-38.45-21.34h17.11c0,5.11,3.09,9.27,13.67,9.27,6.65,0,10.7-2.73,10.7-6.54,0-4.16-5.58-5.58-17.11-7.72-14.74-2.61-22.1-8.2-22.1-18.54,0-12.48,9.27-21.15,25.55-21.15,19.01,0,27.69,8.08,28.4,20.92Z"/><path fill="currentColor" d="M206.06,234.75h0s-18.12,0-18.12,0h0c-.16-9.76-8.12-17.59-17.88-17.59h-10.92l-.29,17.59h-18.78v-85.33h0c10.76,0,19.49,8.73,19.49,19.49v14.64s5.71,2.09,5.71,2.09c11.38,4.15,21.64,11.07,29.26,20.48,4.42,5.45,7.74,11.22,9.58,17.62,1.14,3.97,1.94,7.85,1.94,11.02ZM159.57,185.23v17.19h12.35c1.55,0,2.18-2,.91-2.89l-13.26-14.3Z"/>
</svg>